<svg width="86" height="21" viewBox="0 0 86 21" fill="none" xmlns="http://www.w3.org/2000/svg">
<g clip-path="url(#clip0_281_2434)">
<path fill-rule="evenodd" clip-rule="evenodd" d="M21.5237 13.9236C21.6758 14.0746 21.8768 14.1579 22.0887 14.1527C22.3005 14.1579 22.5016 14.0798 22.6536 13.9236C22.8003 13.7674 22.8764 13.5643 22.8709 13.3508V11.6742H24.0498C25.6307 11.6742 26.7389 10.7005 26.7389 9.25823C26.7389 7.82631 25.6632 6.86304 24.0498 6.86304H22.0995C21.8876 6.85783 21.6812 6.93593 21.5291 7.09213C21.3824 7.24313 21.3009 7.44622 21.3064 7.66489V13.3508C21.3009 13.5643 21.377 13.7726 21.5237 13.9236ZM24.0612 10.3516H22.8714V8.19081H24.0612C24.7131 8.19081 25.1477 8.61774 25.1477 9.26344C25.164 9.555 25.0553 9.84141 24.8489 10.0497C24.637 10.2579 24.3545 10.3672 24.0612 10.3516Z" fill="white"/>
<path fill-rule="evenodd" clip-rule="evenodd" d="M33.2839 13.6675C33.4373 13.9227 33.7276 14.0737 34.0398 14.0685C34.4489 14.069 34.7863 13.7643 34.8067 13.376C34.7958 13.1417 34.7081 12.9178 34.5548 12.7355L33.3935 11.1787L33.5578 11.0693C34.1895 10.6314 34.5558 9.92741 34.5383 9.18441C34.5383 7.76291 33.399 6.80485 31.6899 6.80485H29.6248C29.3993 6.79602 29.1801 6.87695 29.02 7.02812C28.8599 7.17933 28.7734 7.38711 28.7812 7.6015V13.2718C28.7812 13.7061 29.1515 14.0581 29.6083 14.0581C30.0651 14.0581 30.4355 13.7061 30.4355 13.2718V11.5952H31.8323L33.2839 13.6675ZM31.701 10.2778H30.4411V8.12737H31.701C32.3857 8.12737 32.8513 8.55435 32.8513 9.19483C32.8675 9.48834 32.7512 9.77448 32.5315 9.98137C32.3118 10.1882 32.0096 10.2961 31.701 10.2778Z" fill="white"/>
<path fill-rule="evenodd" clip-rule="evenodd" d="M36.0012 10.407C36.0012 12.4777 37.7652 14.0952 40.024 14.0952C42.2936 14.0952 44.0684 12.4777 44.0684 10.407C44.0684 8.33632 42.2775 6.71875 40.024 6.71875C37.7706 6.71875 36.0012 8.33632 36.0012 10.407ZM38.3482 8.75976C38.7944 8.32572 39.4063 8.09561 40.0343 8.12577C40.6614 8.09883 41.2714 8.33 41.7168 8.76334C42.1621 9.19667 42.4023 9.79265 42.3792 10.4072C42.3792 11.7508 41.4326 12.6887 40.0343 12.6887C39.4049 12.7238 38.7899 12.4953 38.3427 12.0601C37.8954 11.6249 37.6579 11.024 37.6894 10.4072C37.663 9.79177 37.9021 9.1938 38.3482 8.75976Z" fill="white"/>
<path d="M48.4015 14.0947C48.18 14.0977 47.9665 14.0132 47.8112 13.8609C47.6558 13.7086 47.5725 13.5018 47.5797 13.2886V8.1198H45.8379C45.438 8.1198 45.1147 7.80365 45.1147 7.41901C45.1147 7.02912 45.438 6.71826 45.8379 6.71826H50.9651C51.365 6.71826 51.6883 7.03437 51.6883 7.41901C51.6883 7.80365 51.365 8.1198 50.9651 8.1198H49.2287V13.2833C49.2341 13.4994 49.1522 13.7101 48.9932 13.8629C48.8343 14.021 48.6208 14.1 48.3961 14.0947H48.4015Z" fill="white"/>
<path fill-rule="evenodd" clip-rule="evenodd" d="M52.1355 10.4071C52.1355 12.4777 53.8993 14.0953 56.1581 14.0953C58.4222 14.0953 60.2023 12.4777 60.2023 10.4071C60.2023 8.33633 58.4114 6.71875 56.1581 6.71875C53.9047 6.71875 52.1355 8.33633 52.1355 10.4071ZM54.4829 8.75977C54.9287 8.32573 55.5407 8.09562 56.1689 8.12577C56.7957 8.09889 57.4059 8.33006 57.8512 8.76339C58.2966 9.19668 58.5371 9.79271 58.5137 10.4073C58.5137 11.7508 57.5671 12.6887 56.1689 12.6887C55.5394 12.7239 54.9247 12.4954 54.4771 12.0602C54.0299 11.625 53.7926 11.0241 53.8241 10.4073C53.7976 9.79178 54.0367 9.19385 54.4829 8.75977Z" fill="white"/>
<path d="M62.6522 14.1485C62.4342 14.1559 62.223 14.0739 62.0717 13.9231C61.9182 13.7658 61.8362 13.5561 61.8524 13.3463V7.61044C61.8416 7.39022 61.9236 7.18571 62.0771 7.03371C62.2307 6.8764 62.4441 6.79777 62.6634 6.80298H66.0705C66.4595 6.80298 66.777 7.11759 66.777 7.50033C66.7815 7.68289 66.709 7.85953 66.5762 7.99061C66.4433 8.1217 66.2614 8.19631 66.0705 8.19763H63.4573V10.0327H65.4567C65.8512 10.0327 66.1691 10.3473 66.1691 10.7353C66.1718 10.9179 66.0984 11.0939 65.9642 11.224C65.8305 11.3541 65.6476 11.4274 65.4567 11.4274H63.4573V13.3411C63.4686 13.5508 63.3862 13.7605 63.2331 13.9178C63.0795 14.0699 62.8715 14.1485 62.6522 14.1433V14.1485Z" fill="white"/>
<path d="M69.7647 14.1485C69.5499 14.1537 69.3346 14.0751 69.1838 13.9283C69.0293 13.7794 68.9474 13.5735 68.9582 13.362V7.62087C68.9474 7.33774 69.0978 7.06511 69.3509 6.91831C69.6062 6.77072 69.9237 6.77072 70.179 6.91831C70.4316 7.06511 70.5825 7.33774 70.5716 7.62087V13.362C70.5825 13.5718 70.5018 13.7815 70.351 13.9283C70.1952 14.0804 69.9853 14.159 69.7647 14.1537V14.1485Z" fill="white"/>
<path fill-rule="evenodd" clip-rule="evenodd" d="M77.2944 13.7191C77.4403 13.976 77.7316 14.1281 78.0343 14.1228C78.4355 14.1205 78.7651 13.8145 78.7849 13.4255C78.7741 13.1895 78.6877 12.9641 78.5368 12.7806L77.3917 11.2129L77.5484 11.0976C78.1716 10.6588 78.5345 9.95209 78.5206 9.20485C78.5206 7.7735 77.3971 6.80877 75.712 6.80877H73.6757C73.4532 6.79986 73.2371 6.88136 73.0795 7.03359C72.9214 7.18586 72.8359 7.39509 72.844 7.61094V13.3206C72.8273 13.6126 72.9795 13.8893 73.238 14.0389C73.496 14.1978 73.8243 14.2023 74.0868 14.0505C74.3494 13.8987 74.5016 13.6165 74.4804 13.3206V11.6324H75.8575L77.2944 13.7191ZM75.7224 10.3059H74.4804V8.14047H75.7224C76.4032 8.14047 76.8567 8.57041 76.8567 9.21531C76.8711 9.51045 76.7558 9.79756 76.5397 10.0055C76.3235 10.2133 76.0263 10.3225 75.7224 10.3059Z" fill="white"/>
<path d="M81.1868 14.1486C80.9558 14.1559 80.732 14.0717 80.5686 13.9159C80.4046 13.76 80.315 13.5464 80.3213 13.3254V7.63147C80.3101 7.40913 80.3979 7.19262 80.5627 7.03571C80.728 6.8788 80.9545 6.79619 81.1868 6.80829H84.9064C85.3171 6.80829 85.6512 7.1229 85.6512 7.5161C85.6512 7.90935 85.3171 8.22917 84.9064 8.22917H82.014V9.69725H83.931C84.3093 9.69725 84.6105 9.98034 84.6105 10.3369C84.6105 10.6934 84.3093 10.9818 83.931 10.9818H82.014V12.7277H85.0541C85.4648 12.7277 85.7989 13.0423 85.7989 13.4355C85.7989 13.8287 85.4648 14.1434 85.0541 14.1434L81.1868 14.1486Z" fill="white"/>
<path d="M1.40968 20.2031C0.620736 19.8337 0.0996229 19.0804 0.0473009 18.2335C-0.00502113 17.3866 0.41962 16.5784 1.15747 16.1207C1.89533 15.663 2.83111 15.6272 3.60398 16.0271C4.76593 16.6284 5.21764 18.0191 4.62026 19.156C4.02284 20.2929 2.59584 20.7583 1.40968 20.2031Z" fill="#F54703"/>
<path d="M0.857004 4.29444C-0.707871 7.10173 -0.0857763 10.5766 2.36449 12.715C2.6366 12.9565 3.06109 12.9513 3.32232 12.7098C4.38538 11.7408 4.72063 10.2407 4.16586 8.93524C3.55696 7.58142 3.91926 6.00336 5.06381 5.02416C6.2298 4.02395 7.90658 3.80206 9.30876 4.46244C10.6986 5.09784 11.5148 6.51639 11.3386 7.9903C11.1332 9.46694 9.99084 10.6613 8.48154 10.9774C7.04577 11.3053 5.95268 12.43 5.706 13.8333C5.65156 14.1745 5.89648 14.4947 6.26655 14.5577C9.99444 15.1877 13.6516 13.1613 14.8434 9.81197C16.0407 6.4521 14.408 2.79301 11.0176 1.21807C7.36044 -0.47235 2.74 0.929341 0.857004 4.29444Z" fill="url(#paint0_linear_281_2434)"/>
</g>
<defs>
<linearGradient id="paint0_linear_281_2434" x1="10.9907" y1="16.9252" x2="17.0156" y2="4.05503" gradientUnits="userSpaceOnUse">
<stop stop-color="#F54703"/>
<stop offset="1" stop-color="#FAC902"/>
</linearGradient>
<clipPath id="clip0_281_2434">
<rect width="86" height="20" fill="white" transform="translate(0 0.5)"/>
</clipPath>
</defs>
</svg>
