<svg width="158" height="22" viewBox="0 0 158 22" fill="none" xmlns="http://www.w3.org/2000/svg">
<g clip-path="url(#clip0_2_1135)">
<mask id="mask0_2_1135" style="mask-type:luminance" maskUnits="userSpaceOnUse" x="0" y="0" width="158" height="22">
<path d="M157.389 0.984619H0V21.1304H157.389V0.984619Z" fill="white"/>
</mask>
<g mask="url(#mask0_2_1135)">
<mask id="mask1_2_1135" style="mask-type:luminance" maskUnits="userSpaceOnUse" x="0" y="0" width="158" height="20">
<path d="M157.76 0.564941H0.370117V19.9912H157.76V0.564941Z" fill="white"/>
</mask>
<g mask="url(#mask1_2_1135)">
<path fill-rule="evenodd" clip-rule="evenodd" d="M20.35 17.065C19.51 16.1713 18.87 15.1442 18.41 13.9863V13.9847C17.95 12.8066 17.73 11.5542 17.73 10.23C17.73 8.88814 17.95 7.63504 18.41 6.47374C18.87 5.31574 19.51 4.28884 20.35 3.39504V3.39254C21.21 2.49614 22.23 1.80074 23.41 1.30654C24.59 0.810641 25.8901 0.564941 27.3101 0.564941C28.7201 0.564941 30.0201 0.810641 31.2001 1.30654C32.3801 1.80074 33.39 2.49644 34.23 3.39374C35.09 4.28744 35.7401 5.31484 36.2001 6.47374C36.6601 7.63504 36.88 8.88814 36.88 10.23C36.88 11.5542 36.6601 12.8066 36.2001 13.9847V13.9863C35.7401 15.1453 35.09 16.1726 34.23 17.0663C33.39 17.9636 32.3801 18.6593 31.2001 19.1535C30.0201 19.6495 28.7201 19.8951 27.3101 19.8951C25.8901 19.8951 24.59 19.6495 23.41 19.1535C22.23 18.6593 21.21 17.9639 20.35 17.0676V17.065ZM30.98 4.14134C29.97 3.51414 28.7501 3.19364 27.3101 3.19364C25.8801 3.19364 24.66 3.51374 23.63 4.14254V4.14454C22.59 4.75994 21.79 5.59244 21.23 6.64584C20.69 7.70144 20.41 8.89404 20.41 10.23C20.41 11.5465 20.68 12.7397 21.23 13.8151C21.79 14.8683 22.59 15.7102 23.63 16.3441C24.66 16.9551 25.8801 17.2664 27.3101 17.2664C28.7501 17.2664 29.97 16.9546 30.98 16.3448C32.02 15.7109 32.81 14.8689 33.35 13.816V13.8142C33.92 12.7389 34.2001 11.546 34.2001 10.23C34.2001 8.89484 33.92 7.70294 33.35 6.64764V6.64404C32.81 5.59174 32.02 4.75984 30.98 4.14454V4.14134ZM45.02 0.785841V17.0732H54.99V19.6743H42.34V0.785841H45.02ZM62.5 19.6743V12.2309L54.55 0.785841H57.8101L63.8301 9.44444L69.85 0.785841H73.11L65.1901 12.2306V19.6743H62.5ZM80.15 0.785841L86.53 9.24884L92.8101 0.785841H95.67V19.6743H92.99V5.13354L86.54 13.4325L79.97 5.12224V19.6743H77.29V0.785841H80.15ZM102.28 0.785841H116.33V3.38684H104.96V8.90194H115.12V11.5306H104.96V17.0732H116.33V19.6743H102.28V0.785841ZM124.16 19.1528V19.1512C122.99 18.6348 122.1 17.9192 121.49 16.9967V16.9928C120.91 16.0834 120.57 15.0597 120.47 13.9275L120.45 13.5949H123.22L123.24 13.8824C123.29 14.7039 123.56 15.3484 124.03 15.84C124.53 16.3299 125.17 16.7021 126 16.9476C126.85 17.196 127.79 17.3216 128.81 17.3216C130.32 17.3216 131.48 17.0597 132.32 16.5649C133.13 16.0693 133.52 15.3596 133.52 14.3985C133.52 13.8375 133.33 13.411 132.94 13.0874L132.93 13.0789C132.53 12.7105 131.98 12.3973 131.25 12.149C130.52 11.8956 129.72 11.6678 128.85 11.4675V11.4662C127.96 11.245 127.07 11.0145 126.16 10.775C125.26 10.5312 124.43 10.2204 123.65 9.84314V9.84184C122.88 9.45654 122.25 8.96094 121.76 8.35214L121.75 8.34374C121.26 7.69074 121.02 6.87644 121.02 5.92354C121.02 4.34204 121.64 3.04014 122.85 2.04274V2.04114C124.09 1.04034 125.89 0.564941 128.2 0.564941C129.85 0.564941 131.23 0.817141 132.33 1.33904C133.42 1.83594 134.25 2.50434 134.81 3.35294C135.37 4.18734 135.68 5.09484 135.74 6.07084L135.76 6.39594H133.04L133 6.12574C132.9 5.29604 132.49 4.59424 131.74 4.01304V4.01034C131.01 3.42894 129.85 3.11084 128.2 3.11084C127.19 3.11084 126.39 3.21084 125.78 3.40034C125.17 3.59414 124.72 3.84194 124.41 4.13104C124.11 4.41634 123.91 4.70734 123.8 5.00154C123.7 5.32364 123.65 5.62124 123.65 5.89594C123.65 6.41594 123.84 6.82614 124.21 7.15144C124.63 7.48964 125.19 7.78584 125.9 8.03424C126.64 8.26994 127.46 8.48814 128.35 8.68854C129.26 8.89204 130.16 9.12344 131.04 9.38244C131.96 9.62634 132.8 9.94604 133.56 10.3428C134.35 10.7285 134.98 11.235 135.46 11.8659C135.96 12.5199 136.21 13.3447 136.21 14.3157C136.21 16.0998 135.52 17.503 134.15 18.4853V18.487C132.79 19.4373 130.95 19.8951 128.67 19.8951C126.85 19.8951 125.34 19.6533 124.16 19.1528ZM141.56 0.785841H144.24V8.90194H154.26V0.785841H156.94V19.6743H154.26V11.5306H144.24V19.6743H141.56V0.785841Z" fill="url(#paint0_linear_2_1135)"/>
<path d="M6.78015 9.89014C8.21015 9.89014 9.2102 9.59504 9.8302 9.05034C10.4402 8.48554 10.7601 7.67344 10.7601 6.58004C10.7601 5.45494 10.4302 4.48614 9.8302 3.94664C9.2102 3.40124 8.21015 3.10574 6.78015 3.10574H0.370117V0.564941H7.12012C8.39012 0.564941 9.51008 0.803141 10.4601 1.28814C11.4301 1.75354 12.1901 2.42514 12.7401 3.30204C13.2901 4.18724 13.5502 5.39444 13.5502 6.58004C13.5502 7.77194 13.2801 8.81294 12.7401 9.69384C12.1901 10.5706 11.4301 11.2512 10.4601 11.7353C9.51008 12.2013 8.39012 12.4309 7.12012 12.4309H3.05017V19.6586H0.370117V9.89014H6.78015Z" fill="url(#paint1_linear_2_1135)"/>
</g>
</g>
</g>
<defs>
<linearGradient id="paint0_linear_2_1135" x1="87.33" y1="0.564941" x2="87.33" y2="19.8951" gradientUnits="userSpaceOnUse">
<stop stop-color="#DF2A6F"/>
<stop offset="1" stop-color="#56145F"/>
</linearGradient>
<linearGradient id="paint1_linear_2_1135" x1="6.96014" y1="0.564941" x2="6.96014" y2="19.6586" gradientUnits="userSpaceOnUse">
<stop stop-color="#DF2A6F"/>
<stop offset="1" stop-color="#56145F"/>
</linearGradient>
<clipPath id="clip0_2_1135">
<rect width="157.389" height="21.1303" fill="white"/>
</clipPath>
</defs>
</svg>
